<?xml version="1.0" encoding="UTF-8"?>
<svg id="Capa_1" data-name="Capa 1" xmlns="http://www.w3.org/2000/svg" viewBox="0 0 140 40">
  <defs>
    <style>
      .cls-1 {
        fill: #e50914;
      }
    </style>
  </defs>
  <path class="cls-1" d="M7.33,1.76l7.31,20.22V1.91s.14-.15.15-.15h5.6s.15.14.15.15v34.13c0,.06-.17.16-.25.15-1.79.07-3.64.5-5.4.6-.21.01-.67.06-.8-.1l-6.45-18.42v19.26l-5.9.95V1.76h5.6Z"/>
  <path class="cls-1" d="M122.16,1.76l3.8,9.51,4.05-9.51h6.4l-7.46,17.36,7.45,19.13.02.23c-.37.1-.65-.14-.96-.19-.75-.13-5.49-.6-5.7-.81l-4.05-10.61-4.3,9.66-6.11-.66,7.26-16.86-6.46-16.71-.1-.55h6.15Z"/>
  <path class="cls-1" d="M41.95,7.56h-10.21v7.61h7.71v5.7l-7.71.1v8.41l10.21-.7v5.65l-16.01,1.25V1.76h15.86s.15.14.15.15v5.65Z"/>
  <path class="cls-1" d="M65.37,1.76v5.8h10.31v7.31h-7.81v5.7h7.81v13.11h5.65s.15-.14.15-.15V1.76h-16.11Z"/>
  <path class="cls-1" d="M57.27,7.56l.09,26.06-.24.16-5.65.2V7.56h-6V1.91s.14-.15.15-.15h17.61s.15.14.15.15v5.5s-.14.15-.15.15h-5.95Z"/>
  <polygon class="cls-1" points="90.89 1.76 90.89 28.38 100.7 28.98 100.7 34.68 85.09 33.88 85.09 1.76 90.89 1.76"/>
  <path class="cls-1" d="M111.21,35.48c-.48-.06-5.9-.16-5.9-.35V14.12s.14-.1.15-.1h5.6s.15.09.15.1v21.37Z"/>
  <path class="cls-1" d="M111.21,8.81c-.48-.02-5.9-.05-5.9-.12V1.79s.14-.03.15-.03h5.6s.15.03.15.03v7.02Z"/>
</svg>